<?xml version="1.0" encoding="utf-8"?>
<!-- Generator: Adobe Illustrator 26.0.0, SVG Export Plug-In . SVG Version: 6.00 Build 0)  -->
<svg version="1.1" id="Layer_1" xmlns="http://www.w3.org/2000/svg" xmlns:xlink="http://www.w3.org/1999/xlink" x="0px" y="0px"
	 viewBox="0 0 841.9 595.3" style="enable-background:new 0 0 841.9 595.3;" xml:space="preserve">
<style type="text/css">
	.st0{fill:#AA935F;}
	.st1{fill:#707071;}
	.st2{fill:#848181;}
</style>
<g>
	<g>
		<path class="st0" d="M41.5,313.4h9.9c4.5,0,8.2,0.9,11.2,2.7c3,1.8,5.1,4.1,6.5,6.9s2,5.8,2,8.9c0,3.5-0.8,6.6-2.4,9.3
			c-1.6,2.7-3.8,4.8-6.6,6.2c-2.7,1.5-5.7,2.2-8.9,2.2H41.5V313.4z M52.2,344.9c2.7,0,5.1-0.5,7.2-1.6c2.1-1,3.8-2.6,4.9-4.6
			c1.2-2,1.8-4.4,1.8-7.2c0-2.8-0.6-5.3-1.8-7.3c-1.2-2-2.9-3.6-4.9-4.6s-4.3-1.6-6.6-1.6h-6.4v27L52.2,344.9L52.2,344.9z"/>
		<path class="st0" d="M102.8,313.4v4.7H84.2v11h16.7v4.7H84.2V345h19.4v4.7H79.3v-36.2L102.8,313.4L102.8,313.4z"/>
		<path class="st0" d="M143.6,313.4v37.4h-0.2l-26.6-27l0.1,25.8H112v-37.3h0.2l26.6,27.3l-0.1-26.2L143.6,313.4L143.6,313.4z"/>
		<path class="st0" d="M175.4,313.4v4.7h-9.7v31.5h-4.9v-31.5h-9.5v-4.7H175.4z"/>
		<path class="st0" d="M199.3,340.1h-13.9l-3.9,9.5h-4.8l15.8-37.7h0.3l15.8,37.7H203L199.3,340.1z M197.6,335.9l-5.2-13.2
			l-5.4,13.2H197.6z"/>
		<path class="st0" d="M220.2,313.4v31.5h18.4v4.7h-23.2v-36.2H220.2L220.2,313.4z"/>
		<path class="st0" d="M262.4,313.4h9.9c4.5,0,8.2,0.9,11.2,2.7c3,1.8,5.1,4.1,6.5,6.9s2,5.8,2,8.9c0,3.5-0.8,6.6-2.5,9.3
			c-1.6,2.7-3.8,4.8-6.6,6.2c-2.7,1.5-5.7,2.2-8.9,2.2h-11.6V313.4L262.4,313.4z M273.1,344.9c2.7,0,5.1-0.5,7.2-1.6
			s3.8-2.6,4.9-4.6c1.2-2,1.8-4.4,1.8-7.2c0-2.8-0.6-5.3-1.9-7.3c-1.2-2-2.9-3.6-4.9-4.6s-4.3-1.6-6.6-1.6h-6.3v27L273.1,344.9
			L273.1,344.9z"/>
		<path class="st0" d="M305,313.4v36.2h-4.9v-36.2H305z"/>
		<path class="st0" d="M334.4,340.1h-13.9l-3.9,9.5h-4.8l15.8-37.7h0.3l15.8,37.7h-5.6L334.4,340.1z M332.7,335.9l-5.2-13.2
			l-5.4,13.2H332.7z"/>
		<path class="st0" d="M372.4,348.9c-2.4,0.7-4.5,1.1-6.5,1.1c-3.8,0-7.1-0.8-10-2.3s-5.1-3.7-6.6-6.4c-1.5-2.7-2.3-5.7-2.3-9.1
			c0-3.9,0.8-7.4,2.5-10.2c1.7-2.9,3.9-5.1,6.8-6.6s5.9-2.3,9.3-2.3c2,0,4,0.2,5.8,0.7s3.4,1.1,4.9,1.9l-1.6,4.5
			c-1.1-0.6-2.4-1.1-4-1.6s-3.1-0.7-4.4-0.7c-2.8,0-5.3,0.6-7.4,1.7s-3.8,2.8-5,4.9s-1.8,4.6-1.8,7.4c0,2.6,0.6,4.9,1.8,7
			c1.2,2,2.8,3.6,5,4.7c2.1,1.1,4.6,1.7,7.3,1.7c1.3,0,2.5-0.1,3.7-0.4c1.2-0.2,2.2-0.6,3-1.1v-7.2h-7.5v-4.7h12.1v14.6
			C376.5,347.4,374.7,348.2,372.4,348.9z"/>
		<path class="st0" d="M418.4,313.4v37.4h-0.1l-26.6-27l0.1,25.8h-4.9v-37.3h0.2l26.5,27.3l-0.1-26.2L418.4,313.4L418.4,313.4z"/>
		<path class="st0" d="M429,322.4c1.7-2.8,3.9-5.1,6.7-6.8c2.8-1.7,5.9-2.5,9.2-2.5c3.3,0,6.4,0.8,9.2,2.5s5.1,4,6.8,6.8
			s2.5,5.9,2.5,9.2c0,3.3-0.8,6.4-2.5,9.3c-1.7,2.8-3.9,5.1-6.8,6.7s-5.9,2.5-9.2,2.5c-3.3,0-6.4-0.8-9.3-2.5
			c-2.8-1.6-5.1-3.9-6.7-6.7c-1.6-2.8-2.5-5.9-2.5-9.3C426.5,328.3,427.4,325.2,429,322.4z M433.4,338.5c1.2,2.1,2.9,3.8,4.9,5
			c2.1,1.2,4.4,1.9,6.8,1.9s4.7-0.6,6.8-1.8c2-1.2,3.7-2.9,4.9-5c1.2-2.1,1.8-4.4,1.8-6.9s-0.6-4.8-1.8-7c-1.2-2.1-2.8-3.8-4.9-5.1
			c-2.1-1.2-4.3-1.9-6.8-1.9s-4.7,0.6-6.8,1.9s-3.7,3-4.9,5.1c-1.2,2.1-1.8,4.5-1.8,7C431.6,334.1,432.2,336.4,433.4,338.5z"/>
		<path class="st0" d="M486.3,318.2c-1.5-0.4-2.9-0.6-4.2-0.6c-2,0-3.5,0.4-4.7,1.3c-1.1,0.9-1.7,2.1-1.7,3.6s0.7,2.7,2,3.7
			c1.4,1,3.3,1.9,5.8,2.8c1.9,0.7,3.5,1.4,4.7,2.2c1.3,0.8,2.4,1.9,3.2,3.3c0.9,1.4,1.3,3.1,1.3,5.3c0,1.9-0.5,3.7-1.5,5.3
			s-2.4,2.8-4.1,3.7c-1.8,0.9-3.9,1.4-6.3,1.4c-2.2,0-4.4-0.4-6.5-1.1s-3.9-1.6-5.5-2.7l2.1-3.9c1.2,0.9,2.7,1.7,4.5,2.4
			s3.4,1,4.9,1c1.9,0,3.6-0.5,5.1-1.5s2.2-2.5,2.2-4.5c0-1.7-0.6-3-1.8-4s-2.9-1.9-5.1-2.8c-2-0.8-3.7-1.5-5.1-2.2s-2.5-1.7-3.5-3
			s-1.5-2.9-1.5-4.8c0-2.8,1-5.1,3-6.9s4.6-2.7,7.7-2.8c3.9,0,7.5,1,10.9,2.9l-1.9,3.8C489.2,319.2,487.8,318.6,486.3,318.2z"/>
		<path class="st0" d="M522,313.4v4.7h-9.7v31.5h-4.9v-31.5h-9.5v-4.7H522z"/>
		<path class="st0" d="M534.6,313.4v36.2h-4.9v-36.2H534.6z"/>
		<path class="st0" d="M567.2,349.1c-1.8,0.6-3.7,1-5.8,1c-3.7,0-7-0.8-9.8-2.5c-2.8-1.6-5-3.8-6.5-6.6s-2.3-5.8-2.3-9.2
			c0-3.6,0.8-6.8,2.3-9.6c1.5-2.9,3.7-5.1,6.4-6.7s5.8-2.4,9.2-2.4c2,0,3.9,0.3,5.7,0.8s3.4,1.2,4.8,2.1l-2,4.6
			c-2.8-1.9-5.6-2.8-8.4-2.8c-2.3,0-4.5,0.6-6.5,1.9c-2,1.2-3.6,2.9-4.8,5s-1.8,4.5-1.8,7c0,2.6,0.5,5,1.6,7.1s2.6,3.8,4.7,4.9
			c2,1.2,4.3,1.8,7,1.8c3.2,0,6.1-0.9,8.5-2.8l2,4.4C570.5,347.7,569,348.4,567.2,349.1z"/>
		<path class="st0" d="M617.8,349.1c-1.8,0.6-3.7,1-5.8,1c-3.7,0-7-0.8-9.8-2.5c-2.8-1.6-5-3.8-6.5-6.6s-2.3-5.8-2.3-9.2
			c0-3.6,0.8-6.8,2.3-9.6c1.5-2.9,3.7-5.1,6.4-6.7s5.8-2.4,9.2-2.4c2,0,3.9,0.3,5.7,0.8s3.4,1.2,4.8,2.1l-2,4.6
			c-2.8-1.9-5.6-2.8-8.4-2.8c-2.3,0-4.5,0.6-6.5,1.9c-2,1.2-3.6,2.9-4.8,5s-1.8,4.5-1.8,7c0,2.6,0.5,5,1.6,7.1s2.6,3.8,4.7,4.9
			c2,1.2,4.3,1.8,7,1.8c3.2,0,6.1-0.9,8.5-2.8l2,4.4C621.1,347.7,619.6,348.4,617.8,349.1z"/>
		<path class="st0" d="M653.9,313.4v4.7h-18.7v11h16.7v4.7h-16.7V345h19.4v4.7h-24.2v-36.2L653.9,313.4L653.9,313.4z"/>
		<path class="st0" d="M694.7,313.4v37.4h-0.2l-26.6-27l0.1,25.8h-4.9v-37.3h0.2l26.5,27.3l-0.1-26.2L694.7,313.4L694.7,313.4z"/>
		<path class="st0" d="M726.5,313.4v4.7h-9.7v31.5h-4.9v-31.5h-9.5v-4.7H726.5z"/>
		<path class="st0" d="M754.2,349.6l-8.5-13.4c-0.3,0-0.7,0-1.2,0h-5.4v13.3h-4.9v-36.2h9.7c2.5,0,4.7,0.4,6.6,1.3s3.5,2.1,4.6,3.8
			c1.1,1.7,1.7,3.7,1.7,6.1c0,2.2-0.5,4.3-1.5,6.2c-1,1.9-2.5,3.3-4.5,4.3l9.1,14.6L754.2,349.6L754.2,349.6z M750,329.6
			c1.2-1.4,1.7-2.9,1.7-4.7c0-1.1-0.2-2.1-0.7-3.2s-1.2-1.9-2.3-2.6s-2.4-1-4-1h-5.6v13.5h5.3C746.9,331.6,748.8,330.9,750,329.6z"
			/>
		<path class="st0" d="M790.8,313.4v4.7h-18.7v11h16.7v4.7h-16.7V345h19.4v4.7h-24.2v-36.2L790.8,313.4L790.8,313.4z"/>
	</g>
</g>
<g>
	<g>
		<path class="st0" d="M280.6,175.6c0.7,0,1.3,0,1.9,0c10.3,0,20.6,0,30.9,0c2.7,0,5.4-0.1,8,0.2c9.2,1.2,17,5.4,23,12.4
			c5.7,6.6,9.9,14.2,14.3,21.6c3.6,6.1,7.2,12.2,10.8,18.4c0.2,0.4,0.3,0.8,0.3,1.2c0.1,10.1,0.2,20.2,0.2,30.3
			c0,1.7,0.6,2.1,2.2,2.1c14.7,0,29.5,0.1,44.2-0.1c4.6,0,9.3-0.4,13.7-1.4c14.3-3.4,25.3-11.5,32.5-24.5c0.4-0.7,0.4-1.8,0.1-2.5
			c-1.3-2.9-2.8-5.7-4.4-8.5c-1-1.7-2.2-3.3-3.4-5c-0.2,0.6-0.4,1-0.5,1.4c-1.6,6.6-5,12.1-9.7,16.8c-6.8,6.7-15,10.6-24.6,10.8
			c-10.8,0.2-21.6,0.1-32.4,0.1c-1.2,0-2.4,0-3.5,0c0-6.8,0-13.3,0-19.8c0-0.8-0.1-1.6-0.5-2.2c-3.5-5.6-7.3-11.1-10.7-16.8
			c-4.4-7.2-8.4-14.7-12.9-21.9c-3.3-5.4-7.3-10.4-12.3-14.4c-10.2-8.2-22-11.5-35-11.4c-14.5,0.1-29,0-43.5,0
			c-2.5,0-2.8,0.2-2.8,2.7c0,30.9,0,61.7,0,92.6c0,1.4,0.2,2.7,0.3,4.2c0.8,0,1.5,0,2.2,0c15,0,30,0.1,45.1,0c3.8,0,7.7-0.3,11.4-1
			c15.4-3.1,27-11.5,34.7-25.2c0.6-1,0.6-1.9,0-2.9c-2.5-4.3-4.9-8.6-7.4-12.9c-0.1-0.2-0.4-0.3-0.6-0.5c-0.2,0.3-0.3,0.4-0.3,0.6
			c-1.6,8.4-6,15.1-12.4,20.4c-6.2,5.2-13.5,8.3-21.7,8.5c-11.9,0.2-23.9,0-35.8,0c-0.4,0-0.9-0.1-1.3-0.1
			C280.6,224.4,280.6,200.1,280.6,175.6z M383.5,209.9c0.2-0.1,0.4-0.2,0.6-0.2c0-0.6,0-1.1,0-1.6c0-10.2,0-20.4-0.1-30.7
			c0-1.4,0.4-1.8,1.8-1.8c10.3,0.1,20.7,0,31,0c2.5,0,5-0.1,7.5,0.3c9.1,1.2,16.6,5.5,22.5,12.4c3,3.4,5.7,7,8.1,10.8
			c4.8,7.5,9.1,15.2,13.8,22.7c3.4,5.4,6.9,10.7,10.6,15.9c4.5,6.3,9.4,12.1,16.1,16.2c10.9,6.7,22.5,9.5,35.1,7.3
			c15.1-2.6,26.7-10.7,34.7-23.9c0.4-0.7,0.7-1.4,1.2-2.4c-4.4,0-8.5,0.1-12.6,0c-1.8-0.1-3,0.5-4.1,1.8
			c-10.3,11.9-27.7,15.8-42.7,9c-8.2-3.7-13.6-10.2-18.7-17.1c-6.9-9.2-12.7-19.1-18.2-29.3c-4.1-7.6-8.7-15.1-14.7-21.3
			c-9.8-10.1-22.1-15.1-36.1-15.4c-15.7-0.4-31.4-0.1-47.1-0.2c-2.1,0-2.3,0.2-2.3,2.3c0,6.7,0,13.5,0,20.2c0,0.6,0.1,1.3,0.3,1.8
			c2.1,4.3,4.2,8.7,6.6,12.9C378.9,203.2,381.3,206.5,383.5,209.9z M486.5,204.6c0.3-1.1,0.5-1.6,0.6-2.2c1.5-5.5,4.1-10.6,8-14.7
			c8.8-9.5,19.7-13.4,32.5-11.7c9.7,1.3,17.4,6,23.6,13.4c0.4,0.5,1.3,0.9,1.9,0.9c3.8,0.1,7.7,0.1,11.5,0c0.4,0,0.8-0.1,1.9-0.2
			c-2.8-4.1-4.9-8.4-8-11.6c-13.1-13.9-29.3-18.6-47.9-14.3c-14.2,3.3-24.6,11.9-31.8,24.5c-0.7,1.2-0.6,2,0,3.1
			c2,3.4,3.9,6.8,5.9,10.2C485.2,202.7,485.7,203.5,486.5,204.6z"/>
		<path class="st0" d="M280.6,175.6c0,24.5,0,48.7,0,73.1c0.4,0.1,0.9,0.1,1.3,0.1c11.9,0,23.9,0.2,35.8,0
			c8.2-0.1,15.5-3.2,21.7-8.5c6.4-5.4,10.9-12.1,12.4-20.4c0-0.1,0.1-0.3,0.3-0.6c0.2,0.2,0.5,0.3,0.6,0.5c2.5,4.3,4.9,8.6,7.4,12.9
			c0.6,1,0.5,1.9,0,2.9c-7.7,13.7-19.3,22.2-34.7,25.2c-3.7,0.7-7.6,1-11.4,1c-15,0.1-30,0-45.1,0c-0.7,0-1.3,0-2.2,0
			c-0.1-1.5-0.3-2.9-0.3-4.2c0-30.9,0-61.7,0-92.6c0-2.5,0.2-2.7,2.8-2.7c14.5,0,29,0.1,43.5,0c13-0.1,24.8,3.2,35,11.4
			c5,4,9,9,12.3,14.4c4.4,7.2,8.5,14.7,12.9,21.9c3.4,5.7,7.2,11.2,10.7,16.8c0.4,0.6,0.5,1.5,0.5,2.2c0,6.5,0,13,0,19.8
			c1.2,0,2.4,0,3.5,0c10.8,0,21.6,0.1,32.4-0.1c9.6-0.2,17.8-4,24.6-10.8c4.7-4.7,8.1-10.2,9.7-16.8c0.1-0.4,0.3-0.8,0.5-1.4
			c1.2,1.7,2.5,3.3,3.4,5c1.6,2.8,3,5.6,4.4,8.5c0.3,0.7,0.3,1.8-0.1,2.5c-7.2,13-18.2,21.1-32.5,24.5c-4.4,1.1-9.1,1.4-13.7,1.4
			c-14.7,0.2-29.5,0-44.2,0.1c-1.6,0-2.2-0.4-2.2-2.1c0-10.1-0.1-20.2-0.2-30.3c0-0.4-0.1-0.9-0.3-1.2c-3.6-6.1-7.2-12.3-10.8-18.4
			c-4.4-7.4-8.6-15-14.3-21.6c-6.1-7.1-13.8-11.2-23-12.4c-2.6-0.4-5.3-0.2-8-0.2c-10.3,0-20.6,0-30.9,0
			C281.9,175.6,281.4,175.6,280.6,175.6z"/>
		<path class="st0" d="M383.5,209.9c-2.2-3.4-4.6-6.8-6.6-10.3c-2.4-4.2-4.4-8.6-6.6-12.9c-0.3-0.5-0.3-1.2-0.3-1.8
			c0-6.7,0-13.5,0-20.2c0-2.1,0.2-2.3,2.3-2.3c15.7,0,31.4-0.2,47.1,0.2c14,0.3,26.3,5.3,36.1,15.4c6.1,6.2,10.6,13.6,14.7,21.3
			c5.5,10.1,11.3,20,18.2,29.3c5.1,6.9,10.5,13.4,18.7,17.1c15,6.8,32.3,2.9,42.7-9c1.2-1.3,2.3-1.9,4.1-1.8c4.1,0.1,8.2,0,12.6,0
			c-0.5,0.9-0.8,1.7-1.2,2.4c-8,13.2-19.6,21.2-34.7,23.9c-12.6,2.2-24.2-0.6-35.1-7.3c-6.7-4.1-11.7-9.9-16.1-16.2
			c-3.7-5.2-7.2-10.5-10.6-15.9c-4.7-7.5-9.1-15.2-13.8-22.7c-2.4-3.8-5.1-7.4-8.1-10.8c-6-6.8-13.5-11.1-22.5-12.4
			c-2.5-0.3-5-0.3-7.5-0.3c-10.3,0-20.7,0-31,0c-1.4,0-1.8,0.4-1.8,1.8c0.1,10.2,0.1,20.4,0.1,30.7c0,0.6,0,1.1,0,1.6
			C383.9,209.8,383.7,209.9,383.5,209.9z"/>
		<path class="st0" d="M486.5,204.6c-0.7-1.1-1.3-1.9-1.8-2.7c-2-3.4-3.9-6.8-5.9-10.2c-0.6-1.1-0.7-1.9,0-3.1
			c7.2-12.6,17.6-21.2,31.8-24.5c18.5-4.4,34.8,0.3,47.9,14.3c3.1,3.3,5.2,7.5,8,11.6c-1,0.1-1.5,0.2-1.9,0.2c-3.8,0-7.7,0.1-11.5,0
			c-0.7,0-1.5-0.4-1.9-0.9c-6.2-7.4-14-12.1-23.6-13.4c-12.8-1.7-23.8,2.2-32.5,11.7c-3.9,4.2-6.4,9.2-8,14.7
			C486.9,202.9,486.8,203.5,486.5,204.6z"/>
	</g>
</g>
<rect x="41.5" y="380.2" class="st1" width="750" height="2"/>
<g>
	<path class="st2" d="M53.2,441c-1.9,0-3.5-0.3-5-0.9c-1.5-0.6-2.7-1.5-3.7-2.6c-1-1.1-1.8-2.4-2.3-3.9c-0.5-1.5-0.8-3.1-0.8-4.8
		c0-2.1,0.3-3.9,0.9-5.5c0.6-1.6,1.4-3,2.5-4.1c1.1-1.1,2.4-1.9,3.9-2.5c1.5-0.6,3.3-0.9,5.1-0.9c0.9,0,1.7,0,2.6,0.1
		c0.8,0.1,1.6,0.2,2.4,0.3c0.7,0.1,1.4,0.3,1.9,0.4c0.6,0.1,1,0.2,1.3,0.2l-0.3,5.8h-2.4l-0.8-4c-0.2-0.1-0.4-0.3-0.8-0.4
		c-0.4-0.2-1-0.3-1.6-0.4c-0.7-0.1-1.5-0.2-2.4-0.2c-1.7,0-3.2,0.4-4.4,1.2c-1.2,0.8-2.1,1.9-2.8,3.5c-0.6,1.5-0.9,3.5-0.9,5.8
		c0,1.5,0.1,2.9,0.4,4.3c0.3,1.4,0.8,2.6,1.4,3.6c0.6,1.1,1.4,1.9,2.4,2.5c1,0.6,2.2,0.9,3.6,0.9c0.7,0,1.4-0.1,2-0.2
		c0.6-0.1,1.2-0.3,1.7-0.5c0.5-0.2,1-0.5,1.5-0.7v-7.4l-4.2-0.3v-1.9h9.7v1.9l-1.9,0.3v8.9c-0.4,0-0.9,0.1-1.3,0.2
		c-0.5,0.1-1,0.3-1.5,0.4c-0.5,0.2-1.1,0.3-1.7,0.5c-0.6,0.2-1.3,0.3-2.1,0.4C54.9,440.9,54.1,441,53.2,441z"/>
	<path class="st2" d="M75.8,441c-1.9,0-3.4-0.4-4.6-1.2c-1.2-0.8-2.1-2-2.7-3.4c-0.6-1.4-0.9-3.1-0.9-5c0-1.5,0.2-2.8,0.6-4
		c0.4-1.2,1-2.2,1.8-3c0.8-0.8,1.7-1.5,2.7-2c1.1-0.5,2.2-0.7,3.5-0.7c2.1,0,3.7,0.6,4.8,1.7c1.1,1.1,1.7,2.8,1.8,4.9
		c0,0.7,0,1.2,0,1.7c0,0.5-0.1,0.9-0.2,1.3H71.2c0,1.1,0.2,2,0.4,2.9c0.2,0.9,0.6,1.7,1.1,2.3c0.5,0.7,1.1,1.2,1.8,1.5
		c0.7,0.4,1.5,0.5,2.4,0.5c0.9,0,1.9-0.2,2.8-0.5c1-0.3,1.7-0.7,2.2-1.1l0.6,1.5c-0.4,0.4-0.9,0.8-1.6,1.2c-0.7,0.4-1.5,0.7-2.4,0.9
		C77.6,440.8,76.7,441,75.8,441z M71.2,429.6h8c0-0.2,0-0.4,0.1-0.7c0-0.3,0-0.5,0-0.7c0-1.4-0.3-2.5-0.8-3.3
		c-0.6-0.9-1.5-1.3-2.8-1.3c-0.6,0-1.1,0.1-1.6,0.3c-0.5,0.2-1,0.5-1.4,1c-0.4,0.5-0.7,1.1-0.9,1.9
		C71.4,427.5,71.2,428.4,71.2,429.6z"/>
	<path class="st2" d="M88.1,438.7v-13.9l-2.4-0.6v-1.8l4.7-0.6h0.1l0.7,0.6v1.4l0,0.8c0.5-0.4,1.1-0.9,1.9-1.3
		c0.8-0.4,1.6-0.8,2.4-1.1c0.9-0.3,1.8-0.4,2.6-0.4c1.4,0,2.5,0.3,3.3,0.8c0.8,0.5,1.3,1.4,1.7,2.5c0.3,1.1,0.5,2.6,0.5,4.3v9.3
		l2.3,0.2v1.7H98v-1.6l2-0.2v-9.3c0-1.2-0.1-2.2-0.3-3c-0.2-0.8-0.5-1.4-1-1.7c-0.5-0.4-1.2-0.6-2.2-0.6c-0.6,0-1.2,0.1-1.8,0.3
		c-0.6,0.2-1.2,0.5-1.7,0.8c-0.5,0.3-1,0.6-1.4,0.9v12.6l2.3,0.3v1.6H86v-1.6L88.1,438.7z"/>
	<path class="st2" d="M116.8,441c-1.9,0-3.4-0.4-4.6-1.2c-1.2-0.8-2.1-2-2.7-3.4c-0.6-1.4-0.9-3.1-0.9-5c0-1.5,0.2-2.8,0.6-4
		c0.4-1.2,1-2.2,1.8-3c0.8-0.8,1.7-1.5,2.7-2c1.1-0.5,2.2-0.7,3.5-0.7c2.1,0,3.7,0.6,4.8,1.7c1.1,1.1,1.7,2.8,1.8,4.9
		c0,0.7,0,1.2,0,1.7c0,0.5-0.1,0.9-0.2,1.3h-11.4c0,1.1,0.2,2,0.4,2.9c0.2,0.9,0.6,1.7,1.1,2.3c0.5,0.7,1.1,1.2,1.8,1.5
		c0.7,0.4,1.5,0.5,2.4,0.5c0.9,0,1.9-0.2,2.8-0.5c1-0.3,1.7-0.7,2.2-1.1l0.6,1.5c-0.4,0.4-0.9,0.8-1.6,1.2c-0.7,0.4-1.5,0.7-2.4,0.9
		C118.6,440.8,117.7,441,116.8,441z M112.2,429.6h8c0-0.2,0-0.4,0.1-0.7c0-0.3,0-0.5,0-0.7c0-1.4-0.3-2.5-0.8-3.3
		c-0.6-0.9-1.5-1.3-2.8-1.3c-0.6,0-1.1,0.1-1.6,0.3c-0.5,0.2-1,0.5-1.4,1c-0.4,0.5-0.7,1.1-0.9,1.9
		C112.4,427.5,112.2,428.4,112.2,429.6z"/>
	<path class="st2" d="M126.9,440.6V439l2.5-0.2v-14l-2.4-0.6v-1.8l4.6-0.6h0.1l0.7,0.6v0.6l-0.1,2.9h0.1c0.1-0.2,0.3-0.5,0.6-0.9
		c0.3-0.4,0.7-0.9,1.3-1.4c0.5-0.5,1.2-0.9,1.9-1.2c0.7-0.3,1.6-0.5,2.5-0.5c0.3,0,0.6,0,0.8,0.1c0.2,0,0.3,0.1,0.5,0.1v3.6
		c-0.1-0.1-0.4-0.2-0.7-0.3c-0.3-0.1-0.8-0.1-1.3-0.1c-0.9,0-1.7,0.1-2.3,0.3c-0.6,0.2-1.2,0.5-1.6,0.8c-0.4,0.3-0.8,0.6-1.1,0.8
		v11.6l4.2,0.3v1.6H126.9z"/>
	<path class="st2" d="M147.4,441c-1,0-1.9-0.2-2.8-0.6c-0.8-0.4-1.5-1-2-1.8c-0.5-0.8-0.8-1.8-0.8-3c0-1.1,0.3-2.1,0.9-2.8
		c0.6-0.8,1.4-1.4,2.5-1.9c1-0.5,2.2-0.8,3.5-1.1c1.3-0.2,2.7-0.4,4.1-0.4v-1.2c0-1-0.1-1.8-0.3-2.4s-0.6-1-1.1-1.2
		c-0.5-0.2-1.3-0.4-2.3-0.4c-1.3,0-2.4,0.2-3.4,0.6c-1,0.4-1.7,0.8-2.2,1l-0.8-1.7c0.2-0.2,0.7-0.5,1.4-0.9c0.7-0.4,1.6-0.8,2.7-1.1
		s2.1-0.5,3.3-0.5c1.6,0,2.8,0.2,3.7,0.7c0.9,0.4,1.6,1.2,2,2.1c0.4,1,0.6,2.2,0.6,3.7v10.6h2v1.5c-0.2,0.1-0.6,0.1-1,0.2
		c-0.4,0.1-0.8,0.1-1.3,0.2c-0.4,0.1-0.9,0.1-1.2,0.1c-0.6,0-1-0.1-1.2-0.3c-0.2-0.2-0.4-0.6-0.4-1.2v-1.1c-0.3,0.3-0.7,0.6-1.2,1
		c-0.5,0.4-1.2,0.8-2,1.1C149.1,440.8,148.3,441,147.4,441z M148.8,438.7c0.6,0,1.3-0.2,2-0.5c0.8-0.3,1.4-0.8,2-1.3v-5.7
		c-1.7,0-3,0.2-4.1,0.5c-1.1,0.4-1.9,0.8-2.4,1.4c-0.5,0.6-0.8,1.3-0.8,2.1c0,0.8,0.1,1.5,0.4,2c0.3,0.5,0.7,0.9,1.2,1.1
		C147.6,438.6,148.2,438.7,148.8,438.7z"/>
	<path class="st2" d="M166.2,440.9c-1.2,0-2.1-0.3-2.8-0.8c-0.7-0.6-1-1.6-1-3v-12.7H160v-1.5c0.2-0.1,0.5-0.1,0.7-0.2
		c0.3-0.1,0.5-0.1,0.7-0.2c0.2-0.1,0.4-0.1,0.5-0.2c0.1-0.1,0.2-0.2,0.3-0.3c0.1-0.1,0.2-0.2,0.2-0.4c0.1-0.1,0.2-0.3,0.2-0.5
		c0.1-0.3,0.2-0.7,0.4-1.1c0.1-0.5,0.3-0.9,0.4-1.4c0.1-0.5,0.2-0.8,0.3-1.1h2l0,4.8h5.5v2.2h-5.5v10.2c0,1.2,0,2.1,0.1,2.6
		c0.1,0.5,0.3,0.9,0.6,1c0.3,0.1,0.7,0.2,1.3,0.2c0.6,0,1.3-0.1,2-0.2c0.7-0.2,1.2-0.3,1.6-0.5l0.5,1.5c-0.3,0.3-0.8,0.5-1.5,0.8
		c-0.6,0.3-1.3,0.5-2.1,0.7C167.7,440.8,166.9,440.9,166.2,440.9z"/>
	<path class="st2" d="M174.7,440.6v-1.6l2.7-0.3v-13.9l-2.5-0.6v-1.8l5.1-0.6h0.1l0.8,0.6v16.4l2.6,0.2v1.6H174.7z M178.9,418.9
		c-0.7,0-1.2-0.2-1.6-0.6c-0.4-0.4-0.5-0.9-0.5-1.5c0-0.6,0.2-1.2,0.6-1.7c0.4-0.5,1-0.8,1.8-0.8h0c0.7,0,1.2,0.2,1.6,0.6
		c0.4,0.4,0.5,0.9,0.5,1.5c0,0.6-0.2,1.2-0.6,1.7C180.3,418.6,179.7,418.9,178.9,418.9L178.9,418.9z"/>
	<path class="st2" d="M186,431.3c0-1.5,0.2-2.9,0.7-4.1c0.5-1.2,1.1-2.2,2-3c0.8-0.8,1.8-1.4,2.8-1.9c1-0.4,2.1-0.6,3.2-0.6
		c1.9,0,3.5,0.4,4.8,1.3c1.2,0.9,2.2,2,2.7,3.5c0.6,1.4,0.9,3.1,0.9,4.9c0,1.6-0.2,2.9-0.7,4.1c-0.5,1.2-1.1,2.2-2,3
		c-0.8,0.8-1.8,1.4-2.8,1.9c-1,0.4-2.1,0.6-3.2,0.6c-1.4,0-2.7-0.2-3.8-0.7c-1.1-0.5-1.9-1.2-2.6-2c-0.7-0.9-1.2-1.9-1.5-3.1
		C186.2,433.9,186,432.7,186,431.3z M194.6,439.1c1,0,1.8-0.3,2.5-0.8c0.7-0.6,1.2-1.4,1.6-2.5c0.4-1.1,0.6-2.5,0.6-4.2
		c0-1.1-0.1-2.2-0.3-3.2c-0.2-1-0.4-1.8-0.8-2.5c-0.4-0.7-0.8-1.3-1.5-1.7c-0.6-0.4-1.3-0.6-2.2-0.6c-1,0-1.9,0.3-2.6,0.8
		c-0.7,0.6-1.3,1.4-1.6,2.5c-0.4,1.1-0.6,2.5-0.6,4.2c0,1.2,0.1,2.2,0.3,3.2c0.2,1,0.5,1.8,0.8,2.5c0.4,0.7,0.9,1.3,1.5,1.7
		C193.1,438.9,193.8,439.1,194.6,439.1z"/>
	<path class="st2" d="M208.6,438.7v-13.9l-2.4-0.6v-1.8l4.7-0.6h0.1l0.7,0.6v1.4l0,0.8c0.5-0.4,1.1-0.9,1.9-1.3
		c0.8-0.4,1.6-0.8,2.4-1.1c0.9-0.3,1.8-0.4,2.6-0.4c1.4,0,2.5,0.3,3.3,0.8c0.8,0.5,1.3,1.4,1.7,2.5c0.3,1.1,0.5,2.6,0.5,4.3v9.3
		l2.3,0.2v1.7h-7.9v-1.6l2-0.2v-9.3c0-1.2-0.1-2.2-0.3-3c-0.2-0.8-0.5-1.4-1-1.7c-0.5-0.4-1.2-0.6-2.2-0.6c-0.6,0-1.2,0.1-1.8,0.3
		s-1.2,0.5-1.7,0.8c-0.5,0.3-1,0.6-1.4,0.9v12.6l2.3,0.3v1.6h-7.9v-1.6L208.6,438.7z"/>
	<path class="st2" d="M235.8,441c-0.8,0-1.7-0.1-2.5-0.2c-0.8-0.2-1.6-0.3-2.3-0.6c-0.7-0.2-1.2-0.4-1.6-0.6v-4.3h2.2l0.6,2.6
		c0.1,0.2,0.4,0.4,0.8,0.6c0.4,0.2,0.8,0.4,1.3,0.5s1,0.2,1.6,0.2c0.9,0,1.6-0.1,2.1-0.3c0.5-0.2,0.9-0.5,1.2-1
		c0.2-0.4,0.4-0.9,0.4-1.4c0-0.6-0.2-1.2-0.6-1.6c-0.4-0.4-1-0.8-1.7-1.2c-0.7-0.4-1.7-0.8-2.7-1.2c-1.1-0.4-2-0.9-2.7-1.4
		c-0.7-0.5-1.3-1.2-1.6-1.9c-0.4-0.7-0.6-1.6-0.6-2.6c0-1,0.3-1.8,0.9-2.6s1.4-1.3,2.4-1.7c1-0.4,2.2-0.6,3.4-0.6
		c1,0,1.8,0.1,2.5,0.2c0.7,0.1,1.3,0.3,1.8,0.4c0.5,0.2,0.9,0.3,1.1,0.4v4.1h-2l-0.7-2.5c-0.1-0.2-0.3-0.3-0.6-0.5
		c-0.3-0.1-0.6-0.3-1-0.3c-0.4-0.1-0.8-0.1-1.3-0.1c-0.7,0-1.3,0.1-1.8,0.3c-0.5,0.2-0.9,0.5-1.2,0.9c-0.3,0.4-0.4,0.8-0.4,1.3
		c0,0.8,0.2,1.4,0.6,1.9c0.4,0.5,1,0.8,1.6,1.1c0.7,0.3,1.4,0.6,2.1,0.9c0.7,0.3,1.4,0.6,2.1,0.9c0.7,0.3,1.3,0.7,1.8,1.1
		c0.5,0.4,1,0.9,1.3,1.6c0.3,0.6,0.5,1.3,0.5,2.2c0,1.1-0.3,2-0.8,2.8c-0.6,0.8-1.4,1.4-2.4,1.9C238.5,440.7,237.3,441,235.8,441z"
		/>
	<path class="st2" d="M254.9,431.3c0-1.5,0.2-2.9,0.7-4.1c0.5-1.2,1.1-2.2,2-3c0.8-0.8,1.8-1.4,2.8-1.9c1-0.4,2.1-0.6,3.2-0.6
		c1.9,0,3.5,0.4,4.8,1.3c1.2,0.9,2.2,2,2.7,3.5c0.6,1.4,0.9,3.1,0.9,4.9c0,1.6-0.2,2.9-0.7,4.1c-0.5,1.2-1.1,2.2-2,3
		c-0.8,0.8-1.8,1.4-2.8,1.9c-1,0.4-2.1,0.6-3.2,0.6c-1.4,0-2.7-0.2-3.8-0.7c-1.1-0.5-1.9-1.2-2.6-2c-0.7-0.9-1.2-1.9-1.5-3.1
		C255.1,433.9,254.9,432.7,254.9,431.3z M263.5,439.1c1,0,1.8-0.3,2.5-0.8c0.7-0.6,1.2-1.4,1.6-2.5c0.4-1.1,0.6-2.5,0.6-4.2
		c0-1.1-0.1-2.2-0.3-3.2c-0.2-1-0.4-1.8-0.8-2.5c-0.4-0.7-0.8-1.3-1.5-1.7c-0.6-0.4-1.3-0.6-2.2-0.6c-1,0-1.9,0.3-2.6,0.8
		c-0.7,0.6-1.3,1.4-1.6,2.5c-0.4,1.1-0.6,2.5-0.6,4.2c0,1.2,0.1,2.2,0.3,3.2c0.2,1,0.5,1.8,0.8,2.5c0.4,0.7,0.9,1.3,1.5,1.7
		C261.9,438.9,262.7,439.1,263.5,439.1z"/>
	<path class="st2" d="M275,440.6v-1.7l2.8-0.3v-14.3h-3.1v-1.5l3.1-0.6v-1.6c0-1.1,0.2-2,0.6-2.9c0.4-0.9,1-1.7,1.7-2.4
		c0.7-0.7,1.5-1.2,2.4-1.6c0.9-0.4,1.8-0.6,2.8-0.6c0.5,0,1,0,1.3,0.1c0.3,0.1,0.5,0.1,0.7,0.2l0,3.2c-0.2-0.2-0.6-0.3-1.1-0.5
		c-0.5-0.1-1.2-0.2-1.9-0.2c-0.7,0-1.3,0.1-1.7,0.3c-0.4,0.2-0.8,0.6-1,1.1c-0.2,0.5-0.3,1.2-0.3,2.1v2.6h4.6v2.2h-4.6v14.3l3.7,0.2
		v1.7H275z"/>
	<path class="st2" d="M305.4,441c-1.3,0-2.4-0.1-3.3-0.4c-1-0.2-1.8-0.5-2.5-0.7c-0.7-0.2-1.2-0.4-1.6-0.4l0.3-6h2.1l0.6,4.3
		c0.2,0.2,0.6,0.4,1,0.6c0.4,0.2,1,0.4,1.6,0.5c0.6,0.1,1.3,0.2,1.9,0.2c1.2,0,2.2-0.2,2.9-0.5c0.8-0.3,1.3-0.8,1.7-1.5
		c0.3-0.6,0.5-1.4,0.5-2.3c0-0.9-0.3-1.7-0.8-2.3c-0.5-0.6-1.2-1.2-2.1-1.7c-0.9-0.5-1.9-1-3-1.4c-0.7-0.3-1.4-0.6-2.2-1.1
		c-0.8-0.4-1.5-0.9-2.1-1.5c-0.7-0.6-1.2-1.3-1.6-2.1c-0.4-0.8-0.6-1.8-0.6-2.8c0-1.2,0.3-2.3,1-3.3s1.6-1.7,2.8-2.3
		c1.2-0.6,2.7-0.8,4.4-0.8c0.8,0,1.5,0.1,2.2,0.2c0.7,0.1,1.3,0.2,1.8,0.4c0.5,0.1,1,0.3,1.4,0.4c0.4,0.1,0.7,0.2,1,0.2l-0.2,5.6h-2
		l-0.6-4.1c-0.1-0.1-0.4-0.3-0.7-0.4c-0.4-0.1-0.8-0.3-1.3-0.4c-0.5-0.1-1.1-0.1-1.7-0.1c-1.1,0-1.9,0.1-2.6,0.4
		c-0.7,0.3-1.2,0.7-1.5,1.3c-0.3,0.6-0.5,1.2-0.5,2c0,1,0.2,1.8,0.7,2.4c0.5,0.6,1.2,1.2,2.1,1.6c0.9,0.5,1.9,1,3,1.5
		c0.8,0.4,1.6,0.7,2.4,1.2c0.8,0.4,1.5,0.9,2.2,1.5c0.7,0.6,1.2,1.2,1.6,2c0.4,0.7,0.6,1.6,0.6,2.6c0,0.9-0.2,1.7-0.5,2.5
		c-0.3,0.8-0.9,1.6-1.6,2.3c-0.7,0.7-1.6,1.2-2.8,1.7C308.3,440.7,307,441,305.4,441z"/>
	<path class="st2" d="M317.3,440.6v-1.6l2-0.3v-13.9l-2.4-0.6v-1.8l4.7-0.6l0.6,0.4l0.2,1.3l0,1.1c0.5-0.4,1.1-0.9,1.9-1.3
		c0.8-0.4,1.6-0.8,2.5-1.1c0.9-0.3,1.7-0.4,2.4-0.4c1.2,0,2.1,0.2,2.9,0.6c0.7,0.4,1.3,1,1.6,1.9c0.4-0.4,1-0.8,1.7-1.1
		c0.7-0.4,1.5-0.7,2.4-1c0.9-0.3,1.7-0.4,2.5-0.4c1,0,1.9,0.1,2.6,0.4c0.7,0.3,1.2,0.8,1.6,1.4c0.4,0.6,0.7,1.4,0.9,2.4
		c0.2,1,0.3,2.1,0.3,3.4v9.3l2.4,0.3v1.6h-7.9v-1.6l2-0.3v-9.2c0-1.2-0.1-2.2-0.3-3c-0.2-0.8-0.5-1.4-1-1.8s-1.3-0.6-2.3-0.6
		c-0.5,0-1.1,0.1-1.6,0.2s-1.1,0.4-1.6,0.6s-0.9,0.5-1.2,0.8c0.1,0.3,0.1,0.7,0.2,1.1s0.1,0.8,0.1,1.2c0,0.4,0,0.9,0,1.4v9.3
		l2.3,0.3v1.6h-8v-1.6l2.2-0.3v-9.3c0-1.2-0.1-2.2-0.2-3c-0.2-0.8-0.5-1.4-0.9-1.7c-0.5-0.4-1.2-0.6-2.1-0.6c-0.9,0-1.7,0.2-2.6,0.6
		c-0.9,0.4-1.6,0.9-2.2,1.3v12.6l2.2,0.3v1.6H317.3z"/>
	<path class="st2" d="M350.7,440.6v-1.6l2.7-0.3v-13.9l-2.5-0.6v-1.8l5.1-0.6h0.1l0.8,0.6v16.4l2.6,0.2v1.6H350.7z M354.9,418.9
		c-0.7,0-1.2-0.2-1.6-0.6s-0.5-0.9-0.5-1.5c0-0.6,0.2-1.2,0.6-1.7c0.4-0.5,1-0.8,1.8-0.8h0c0.7,0,1.2,0.2,1.6,0.6
		c0.4,0.4,0.5,0.9,0.5,1.5c0,0.6-0.2,1.2-0.6,1.7C356.3,418.6,355.7,418.9,354.9,418.9L354.9,418.9z"/>
	<path class="st2" d="M364.6,438.7v-22.8l-2.7-0.3V414l5.3-0.6h0l0.7,0.5v24.8l2.9,0.2v1.6h-9v-1.6L364.6,438.7z"/>
	<path class="st2" d="M381.5,441c-1.9,0-3.4-0.4-4.6-1.2c-1.2-0.8-2.1-2-2.7-3.4c-0.6-1.4-0.9-3.1-0.9-5c0-1.5,0.2-2.8,0.6-4
		c0.4-1.2,1-2.2,1.8-3c0.8-0.8,1.7-1.5,2.7-2c1.1-0.5,2.2-0.7,3.5-0.7c2.1,0,3.7,0.6,4.8,1.7c1.1,1.1,1.7,2.8,1.8,4.9
		c0,0.7,0,1.2,0,1.7c0,0.5-0.1,0.9-0.2,1.3h-11.4c0,1.1,0.2,2,0.4,2.9c0.2,0.9,0.6,1.7,1.1,2.3c0.5,0.7,1.1,1.2,1.8,1.5
		c0.7,0.4,1.5,0.5,2.4,0.5c0.9,0,1.9-0.2,2.8-0.5c1-0.3,1.7-0.7,2.2-1.1l0.6,1.5c-0.4,0.4-0.9,0.8-1.6,1.2c-0.7,0.4-1.5,0.7-2.4,0.9
		C383.3,440.8,382.5,441,381.5,441z M376.9,429.6h8c0-0.2,0-0.4,0.1-0.7c0-0.3,0-0.5,0-0.7c0-1.4-0.3-2.5-0.8-3.3
		c-0.6-0.9-1.5-1.3-2.8-1.3c-0.6,0-1.1,0.1-1.6,0.3c-0.5,0.2-1,0.5-1.4,1c-0.4,0.5-0.7,1.1-0.9,1.9S377,428.4,376.9,429.6z"/>
	<path class="st2" d="M398.6,441c-0.8,0-1.7-0.1-2.5-0.2c-0.8-0.2-1.6-0.3-2.3-0.6c-0.7-0.2-1.2-0.4-1.6-0.6v-4.3h2.2l0.6,2.6
		c0.1,0.2,0.4,0.4,0.8,0.6c0.4,0.2,0.8,0.4,1.3,0.5c0.5,0.1,1,0.2,1.6,0.2c0.9,0,1.6-0.1,2.1-0.3c0.5-0.2,0.9-0.5,1.2-1
		c0.2-0.4,0.4-0.9,0.4-1.4c0-0.6-0.2-1.2-0.6-1.6c-0.4-0.4-1-0.8-1.7-1.2c-0.7-0.4-1.7-0.8-2.7-1.2c-1.1-0.4-2-0.9-2.7-1.4
		c-0.7-0.5-1.3-1.2-1.6-1.9c-0.4-0.7-0.6-1.6-0.6-2.6c0-1,0.3-1.8,0.9-2.6s1.4-1.3,2.4-1.7c1-0.4,2.2-0.6,3.4-0.6
		c1,0,1.8,0.1,2.5,0.2c0.7,0.1,1.3,0.3,1.8,0.4c0.5,0.2,0.9,0.3,1.1,0.4v4.1h-2l-0.7-2.5c-0.1-0.2-0.3-0.3-0.6-0.5
		c-0.3-0.1-0.6-0.3-1-0.3c-0.4-0.1-0.8-0.1-1.3-0.1c-0.7,0-1.3,0.1-1.8,0.3c-0.5,0.2-0.9,0.5-1.2,0.9c-0.3,0.4-0.4,0.8-0.4,1.3
		c0,0.8,0.2,1.4,0.6,1.9c0.4,0.5,1,0.8,1.6,1.1c0.7,0.3,1.4,0.6,2.1,0.9c0.7,0.3,1.4,0.6,2.1,0.9c0.7,0.3,1.3,0.7,1.8,1.1
		c0.5,0.4,1,0.9,1.3,1.6c0.3,0.6,0.5,1.3,0.5,2.2c0,1.1-0.3,2-0.8,2.8c-0.6,0.8-1.4,1.4-2.4,1.9C401.4,440.7,400.1,441,398.6,441z"
		/>
	<path class="st2" d="M441.2,427.1v1.9l-2.5,0.4c0,1-0.1,2-0.4,2.9c-0.3,0.9-0.6,1.8-1.1,2.5c-0.4,0.8-0.9,1.4-1.4,1.9
		c0.3,0.3,0.7,0.6,1,0.9c0.3,0.3,0.7,0.5,1,0.7c0.4,0.2,0.7,0.4,1.1,0.5c0.4,0.1,0.8,0.2,1.3,0.2v1.5c-0.2,0.1-0.4,0.2-0.7,0.2
		c-0.3,0.1-0.6,0.1-0.9,0.1c-0.3,0-0.6,0-0.7,0c-0.8,0-1.5-0.2-2.2-0.5c-0.6-0.4-1.3-0.9-2.1-1.5c-0.9,0.8-2,1.3-3.1,1.6
		c-1.2,0.3-2.3,0.5-3.3,0.5c-1.7,0-3.2-0.3-4.5-0.8c-1.3-0.5-2.3-1.2-3-2.2c-0.7-1-1.1-2.1-1.1-3.5c0-0.9,0.2-1.8,0.7-2.6
		c0.5-0.8,1.1-1.5,2-2.1c0.8-0.6,1.8-1.1,2.8-1.5c-0.7-1-1.4-2-2-3.1c-0.6-1.1-0.9-2.3-0.9-3.5c0-1.1,0.3-2,0.8-3
		c0.5-0.9,1.3-1.7,2.4-2.2c1-0.6,2.3-0.9,3.8-0.9c1.2,0,2.2,0.2,3.1,0.7c0.8,0.4,1.5,1,1.9,1.8c0.4,0.7,0.6,1.6,0.6,2.5
		c0,1.2-0.2,2.2-0.7,3c-0.4,0.9-1.1,1.6-2,2.3c-0.9,0.7-1.9,1.4-3.1,2.1c0.7,1,1.4,1.8,2.1,2.7c0.7,0.8,1.4,1.6,2.1,2.4
		c0.7,0.8,1.5,1.5,2.2,2.3c0.4-0.6,0.8-1.2,1.1-1.9c0.3-0.7,0.4-1.4,0.5-2.1c0.1-0.7,0.1-1.4,0-2l-2.2-0.4v-1.9H441.2z M427.6,439
		c0.7,0,1.5-0.1,2.3-0.4c0.8-0.3,1.5-0.6,2.2-1.1c-0.6-0.5-1.2-1.1-1.8-1.7c-0.6-0.7-1.2-1.3-1.9-2.1c-0.6-0.7-1.2-1.5-1.8-2.2
		c-0.6-0.7-1.1-1.4-1.7-2.1c-1,0.5-1.8,1.2-2.4,2c-0.6,0.8-0.9,1.7-0.9,2.7c0,0.9,0.2,1.6,0.7,2.4c0.5,0.7,1.2,1.3,2.1,1.8
		C425.4,438.8,426.4,439,427.6,439z M424.4,421.3c0,0.8,0.1,1.6,0.4,2.3s0.6,1.3,1,1.8c0.4,0.5,0.8,1,1.1,1.4
		c0.9-0.6,1.6-1.2,2.2-1.8c0.5-0.6,0.9-1.2,1.2-1.9c0.2-0.7,0.4-1.5,0.4-2.4c0-0.5-0.1-1-0.3-1.6c-0.2-0.6-0.5-1-0.9-1.4
		c-0.4-0.4-1-0.6-1.6-0.6c-0.8,0-1.4,0.2-2,0.6c-0.5,0.4-0.9,0.9-1.1,1.5C424.5,419.8,424.4,420.5,424.4,421.3z"/>
	<path class="st2" d="M461,438.6v-20.9l-5.6,0.2l-1.2,6.9h-2.2l0.6-8.9h20.5l0.6,8.9h-2.2l-1.2-6.9l-5.6-0.2v20.9l4.5,0.3v1.6h-12.7
		v-1.6L461,438.6z"/>
	<path class="st2" d="M476.4,440.6V439l2.5-0.2v-14l-2.4-0.6v-1.8l4.6-0.6h0.1l0.7,0.6v0.6l-0.1,2.9h0.1c0.1-0.2,0.3-0.5,0.6-0.9
		c0.3-0.4,0.7-0.9,1.3-1.4c0.5-0.5,1.2-0.9,1.9-1.2c0.7-0.3,1.6-0.5,2.5-0.5c0.3,0,0.6,0,0.8,0.1c0.2,0,0.3,0.1,0.5,0.1v3.6
		c-0.1-0.1-0.4-0.2-0.7-0.3c-0.3-0.1-0.8-0.1-1.3-0.1c-0.9,0-1.7,0.1-2.3,0.3c-0.6,0.2-1.2,0.5-1.6,0.8c-0.4,0.3-0.8,0.6-1.1,0.8
		v11.6l4.2,0.3v1.6H476.4z"/>
	<path class="st2" d="M507.2,440.9c-0.6,0-1.1-0.1-1.4-0.3c-0.3-0.2-0.5-0.6-0.5-1.2v-1.1c-0.4,0.4-0.9,0.8-1.6,1.3
		c-0.6,0.4-1.3,0.8-2.1,1.1c-0.8,0.3-1.5,0.4-2.3,0.4c-2.1,0-3.6-0.6-4.4-1.7c-0.9-1.1-1.3-2.9-1.3-5.5v-9.6l-1.8-0.5v-1.5l4.7-0.4
		h0l0.6,0.4v11.4c0,1.2,0.1,2.2,0.3,2.9c0.2,0.7,0.5,1.3,1,1.6c0.5,0.3,1.2,0.5,2.1,0.5c0.6,0,1.2-0.1,1.8-0.3
		c0.6-0.2,1.1-0.5,1.5-0.7c0.4-0.3,0.8-0.6,1.1-0.8v-12.6l-2.4-0.5v-1.5l5.1-0.4h0l0.8,0.4v16.7h2l0,1.5c-0.4,0.1-0.8,0.2-1.4,0.3
		C508.6,440.8,507.9,440.9,507.2,440.9z"/>
	<path class="st2" d="M520.3,441c-0.8,0-1.7-0.1-2.5-0.2c-0.8-0.2-1.6-0.3-2.3-0.6c-0.7-0.2-1.2-0.4-1.6-0.6v-4.3h2.2l0.6,2.6
		c0.1,0.2,0.4,0.4,0.8,0.6c0.4,0.2,0.8,0.4,1.3,0.5c0.5,0.1,1,0.2,1.6,0.2c0.9,0,1.6-0.1,2.1-0.3c0.5-0.2,0.9-0.5,1.2-1
		c0.2-0.4,0.4-0.9,0.4-1.4c0-0.6-0.2-1.2-0.6-1.6c-0.4-0.4-1-0.8-1.7-1.2c-0.7-0.4-1.7-0.8-2.7-1.2c-1.1-0.4-2-0.9-2.7-1.4
		c-0.7-0.5-1.3-1.2-1.6-1.9c-0.4-0.7-0.6-1.6-0.6-2.6c0-1,0.3-1.8,0.9-2.6s1.4-1.3,2.4-1.7c1-0.4,2.2-0.6,3.4-0.6
		c1,0,1.8,0.1,2.5,0.2c0.7,0.1,1.3,0.3,1.8,0.4c0.5,0.2,0.9,0.3,1.1,0.4v4.1h-2l-0.7-2.5c-0.1-0.2-0.3-0.3-0.6-0.5
		c-0.3-0.1-0.6-0.3-1-0.3c-0.4-0.1-0.8-0.1-1.3-0.1c-0.7,0-1.3,0.1-1.8,0.3c-0.5,0.2-0.9,0.5-1.2,0.9c-0.3,0.4-0.4,0.8-0.4,1.3
		c0,0.8,0.2,1.4,0.6,1.9c0.4,0.5,1,0.8,1.6,1.1c0.7,0.3,1.4,0.6,2.1,0.9c0.7,0.3,1.4,0.6,2.1,0.9c0.7,0.3,1.3,0.7,1.8,1.1
		c0.5,0.4,1,0.9,1.3,1.6c0.3,0.6,0.5,1.3,0.5,2.2c0,1.1-0.3,2-0.8,2.8s-1.4,1.4-2.4,1.9C523,440.7,521.8,441,520.3,441z"/>
	<path class="st2" d="M536.3,440.9c-1.2,0-2.1-0.3-2.8-0.8c-0.7-0.6-1-1.6-1-3v-12.7h-2.4v-1.5c0.2-0.1,0.5-0.1,0.7-0.2
		c0.3-0.1,0.5-0.1,0.7-0.2c0.2-0.1,0.4-0.1,0.5-0.2c0.1-0.1,0.2-0.2,0.3-0.3c0.1-0.1,0.2-0.2,0.2-0.4c0.1-0.1,0.2-0.3,0.2-0.5
		c0.1-0.3,0.2-0.7,0.4-1.1c0.1-0.5,0.3-0.9,0.4-1.4c0.1-0.5,0.2-0.8,0.3-1.1h2l0,4.8h5.5v2.2H536v10.2c0,1.2,0,2.1,0.1,2.6
		c0.1,0.5,0.3,0.9,0.6,1c0.3,0.1,0.7,0.2,1.3,0.2c0.6,0,1.3-0.1,2-0.2c0.7-0.2,1.2-0.3,1.6-0.5l0.5,1.5c-0.3,0.3-0.8,0.5-1.5,0.8
		c-0.6,0.3-1.3,0.5-2.1,0.7C537.8,440.8,537.1,440.9,536.3,440.9z"/>
	<path class="st2" d="M552.1,441c-1.9,0-3.4-0.4-4.6-1.2c-1.2-0.8-2.1-2-2.7-3.4c-0.6-1.4-0.9-3.1-0.9-5c0-1.5,0.2-2.8,0.6-4
		c0.4-1.2,1-2.2,1.8-3c0.8-0.8,1.7-1.5,2.7-2c1.1-0.5,2.2-0.7,3.5-0.7c2.1,0,3.7,0.6,4.8,1.7c1.1,1.1,1.7,2.8,1.8,4.9
		c0,0.7,0,1.2,0,1.7c0,0.5-0.1,0.9-0.2,1.3h-11.4c0,1.1,0.2,2,0.4,2.9c0.2,0.9,0.6,1.7,1.1,2.3c0.5,0.7,1.1,1.2,1.8,1.5
		c0.7,0.4,1.5,0.5,2.4,0.5c0.9,0,1.9-0.2,2.8-0.5c1-0.3,1.7-0.7,2.2-1.1l0.6,1.5c-0.4,0.4-0.9,0.8-1.6,1.2c-0.7,0.4-1.5,0.7-2.4,0.9
		C553.9,440.8,553,441,552.1,441z M547.5,429.6h8c0-0.2,0-0.4,0.1-0.7c0-0.3,0-0.5,0-0.7c0-1.4-0.3-2.5-0.8-3.3
		c-0.6-0.9-1.5-1.3-2.8-1.3c-0.6,0-1.1,0.1-1.6,0.3c-0.5,0.2-1,0.5-1.4,1c-0.4,0.5-0.7,1.1-0.9,1.9
		C547.7,427.5,547.6,428.4,547.5,429.6z"/>
	<path class="st2" d="M570,441c-1,0-1.9-0.2-2.7-0.5c-0.9-0.4-1.6-0.9-2.3-1.7c-0.7-0.8-1.2-1.7-1.6-2.8c-0.4-1.1-0.6-2.5-0.6-4.1
		c0-1.9,0.4-3.6,1.1-5.1s1.9-2.8,3.3-3.7c1.4-0.9,3.2-1.4,5.2-1.4c0.6,0,1.1,0,1.6,0.1c0.5,0.1,1,0.1,1.4,0.2v-6.2l-3.4-0.4V414
		l6-0.6h0.1l0.7,0.5v24.9h1.9v1.5c-0.5,0.1-1,0.2-1.6,0.3c-0.6,0.1-1.2,0.2-1.9,0.2c-0.5,0-0.9-0.1-1.2-0.3
		c-0.3-0.2-0.4-0.6-0.4-1.3v-1.1c-0.4,0.5-0.9,0.9-1.4,1.3c-0.6,0.4-1.2,0.7-1.9,1C571.6,440.8,570.8,441,570,441z M571.3,438.6
		c0.6,0,1.2-0.1,1.8-0.3c0.5-0.2,1-0.4,1.4-0.7c0.4-0.3,0.7-0.6,0.9-0.9v-12.2c-0.2-0.3-0.6-0.5-1.2-0.7c-0.6-0.2-1.3-0.3-2.1-0.3
		c-1.1,0-2,0.3-2.8,0.8c-0.8,0.5-1.5,1.4-2,2.5c-0.5,1.1-0.8,2.7-0.8,4.5c0,1.7,0.2,3.1,0.6,4.2c0.4,1.1,1,1.8,1.8,2.3
		C569.6,438.4,570.4,438.6,571.3,438.6z"/>
	<path class="st2" d="M602.4,440.9c-0.4,0-0.8,0-1.3-0.1c-0.4,0-0.9-0.1-1.4-0.1c-0.5,0-0.9-0.1-1.4-0.1c-0.5,0-0.9,0-1.3,0h-4.6
		v-1.6l2.8-0.3V418l-2.6-0.4v-1.7h4.4c0.7,0,1.3,0,2-0.1c0.6,0,1.3-0.1,1.9-0.1c0.6,0,1.3-0.1,2-0.1c2.1,0,4,0.3,5.5,0.8
		c1.5,0.6,2.8,1.3,3.8,2.4c1,1,1.7,2.3,2.2,3.7c0.5,1.4,0.7,3.1,0.7,4.9c0,2-0.3,3.8-0.9,5.5c-0.6,1.7-1.5,3.1-2.6,4.3
		c-1.1,1.2-2.4,2.1-4,2.7C606,440.6,604.3,440.9,602.4,440.9z M602.7,439c1.6,0,3.1-0.4,4.3-1.2c1.3-0.8,2.3-2,3-3.6
		c0.7-1.6,1.1-3.6,1.1-6c0-1.7-0.2-3.3-0.5-4.6c-0.4-1.3-0.9-2.4-1.7-3.3s-1.7-1.6-2.8-2.1c-1.1-0.5-2.5-0.7-4-0.7
		c-0.5,0-0.9,0-1.3,0c-0.4,0-0.8,0.1-1.1,0.1c-0.3,0-0.6,0.1-0.9,0.1v21.1c0.4,0.1,0.9,0.2,1.3,0.2c0.4,0,0.9,0.1,1.3,0.1
		C601.8,439,602.3,439,602.7,439z"/>
	<path class="st2" d="M627.1,441c-1.9,0-3.4-0.4-4.6-1.2c-1.2-0.8-2.1-2-2.7-3.4c-0.6-1.4-0.9-3.1-0.9-5c0-1.5,0.2-2.8,0.6-4
		c0.4-1.2,1-2.2,1.8-3c0.8-0.8,1.7-1.5,2.7-2c1.1-0.5,2.2-0.7,3.5-0.7c2.1,0,3.7,0.6,4.8,1.7c1.1,1.1,1.7,2.8,1.8,4.9
		c0,0.7,0,1.2,0,1.7c0,0.5-0.1,0.9-0.2,1.3h-11.4c0,1.1,0.2,2,0.4,2.9c0.2,0.9,0.6,1.7,1.1,2.3c0.5,0.7,1.1,1.2,1.8,1.5
		c0.7,0.4,1.5,0.5,2.4,0.5c0.9,0,1.9-0.2,2.8-0.5c1-0.3,1.7-0.7,2.2-1.1l0.6,1.5c-0.4,0.4-0.9,0.8-1.6,1.2c-0.7,0.4-1.5,0.7-2.4,0.9
		C628.9,440.8,628,441,627.1,441z M622.5,429.6h8c0-0.2,0-0.4,0.1-0.7c0-0.3,0-0.5,0-0.7c0-1.4-0.3-2.5-0.8-3.3
		c-0.6-0.9-1.5-1.3-2.8-1.3c-0.6,0-1.1,0.1-1.6,0.3c-0.5,0.2-1,0.5-1.4,1c-0.4,0.5-0.7,1.1-0.9,1.9
		C622.7,427.5,622.5,428.4,622.5,429.6z"/>
	<path class="st2" d="M639.4,438.7v-13.9l-2.4-0.6v-1.8l4.7-0.6h0.1l0.7,0.6v1.4l0,0.8c0.5-0.4,1.1-0.9,1.9-1.3
		c0.8-0.4,1.6-0.8,2.4-1.1c0.9-0.3,1.8-0.4,2.6-0.4c1.4,0,2.5,0.3,3.3,0.8c0.8,0.5,1.3,1.4,1.7,2.5c0.3,1.1,0.5,2.6,0.5,4.3v9.3
		l2.3,0.2v1.7h-7.9v-1.6l2-0.2v-9.3c0-1.2-0.1-2.2-0.3-3c-0.2-0.8-0.5-1.4-1-1.7c-0.5-0.4-1.2-0.6-2.2-0.6c-0.6,0-1.2,0.1-1.8,0.3
		c-0.6,0.2-1.2,0.5-1.7,0.8c-0.5,0.3-1,0.6-1.4,0.9v12.6l2.3,0.3v1.6h-7.9v-1.6L639.4,438.7z"/>
	<path class="st2" d="M664.8,440.9c-1.2,0-2.1-0.3-2.8-0.8c-0.7-0.6-1-1.6-1-3v-12.7h-2.4v-1.5c0.2-0.1,0.5-0.1,0.7-0.2
		c0.3-0.1,0.5-0.1,0.7-0.2c0.2-0.1,0.4-0.1,0.5-0.2c0.1-0.1,0.2-0.2,0.3-0.3c0.1-0.1,0.2-0.2,0.2-0.4c0.1-0.1,0.2-0.3,0.2-0.5
		c0.1-0.3,0.2-0.7,0.4-1.1c0.1-0.5,0.3-0.9,0.4-1.4c0.1-0.5,0.2-0.8,0.3-1.1h2l0,4.8h5.5v2.2h-5.5v10.2c0,1.2,0,2.1,0.1,2.6
		c0.1,0.5,0.3,0.9,0.6,1c0.3,0.1,0.7,0.2,1.3,0.2c0.6,0,1.3-0.1,2-0.2c0.7-0.2,1.2-0.3,1.6-0.5l0.5,1.5c-0.3,0.3-0.8,0.5-1.5,0.8
		c-0.6,0.3-1.3,0.5-2.1,0.7C666.3,440.8,665.6,440.9,664.8,440.9z"/>
	<path class="st2" d="M678.5,441c-1,0-1.9-0.2-2.8-0.6c-0.8-0.4-1.5-1-2-1.8c-0.5-0.8-0.8-1.8-0.8-3c0-1.1,0.3-2.1,0.9-2.8
		c0.6-0.8,1.4-1.4,2.5-1.9c1-0.5,2.2-0.8,3.5-1.1c1.3-0.2,2.7-0.4,4.1-0.4v-1.2c0-1-0.1-1.8-0.3-2.4s-0.6-1-1.1-1.2
		c-0.5-0.2-1.3-0.4-2.3-0.4c-1.3,0-2.4,0.2-3.4,0.6c-1,0.4-1.7,0.8-2.2,1l-0.8-1.7c0.2-0.2,0.7-0.5,1.4-0.9c0.7-0.4,1.6-0.8,2.7-1.1
		c1-0.3,2.1-0.5,3.3-0.5c1.6,0,2.8,0.2,3.7,0.7c0.9,0.4,1.6,1.2,2,2.1c0.4,1,0.6,2.2,0.6,3.7v10.6h2v1.5c-0.2,0.1-0.6,0.1-1,0.2
		c-0.4,0.1-0.8,0.1-1.3,0.2c-0.4,0.1-0.9,0.1-1.2,0.1c-0.6,0-1-0.1-1.2-0.3c-0.2-0.2-0.4-0.6-0.4-1.2v-1.1c-0.3,0.3-0.7,0.6-1.2,1
		c-0.5,0.4-1.2,0.8-2,1.1C680.3,440.8,679.4,441,678.5,441z M679.9,438.7c0.6,0,1.3-0.2,2-0.5c0.8-0.3,1.4-0.8,2-1.3v-5.7
		c-1.7,0-3,0.2-4.1,0.5c-1.1,0.4-1.9,0.8-2.4,1.4c-0.5,0.6-0.8,1.3-0.8,2.1c0,0.8,0.1,1.5,0.4,2c0.3,0.5,0.7,0.9,1.2,1.1
		C678.8,438.6,679.3,438.7,679.9,438.7z"/>
	<path class="st2" d="M694.6,438.7v-22.8l-2.7-0.3V414l5.3-0.6h0.1l0.7,0.5v24.8l2.9,0.2v1.6h-9v-1.6L694.6,438.7z"/>
	<path class="st2" d="M723.4,441c-1.8,0-3.5-0.3-4.9-0.9c-1.4-0.6-2.6-1.4-3.6-2.5c-1-1.1-1.7-2.4-2.2-4c-0.5-1.5-0.7-3.3-0.7-5.2
		c0-1.9,0.3-3.6,0.9-5.2s1.4-2.9,2.5-4.1c1.1-1.1,2.4-2,3.8-2.6c1.4-0.6,3-0.9,4.7-0.9c0.8,0,1.5,0,2.2,0.1c0.7,0.1,1.3,0.2,2,0.3
		c0.6,0.1,1.2,0.2,1.7,0.3c0.5,0.1,1,0.2,1.4,0.2l-0.3,6h-2.2l-0.8-4.2c-0.2-0.2-0.5-0.3-0.9-0.4c-0.4-0.1-0.9-0.3-1.5-0.4
		c-0.6-0.1-1.3-0.1-2.1-0.1c-1.4,0-2.6,0.4-3.7,1.2c-1.1,0.8-2,2-2.6,3.5c-0.6,1.6-1,3.5-1,5.7c0,1.5,0.2,3,0.5,4.3
		c0.3,1.4,0.8,2.6,1.4,3.6c0.6,1,1.4,1.8,2.3,2.4c0.9,0.6,2.1,0.9,3.3,0.9c0.8,0,1.5,0,2.1-0.1c0.5-0.1,1-0.2,1.3-0.4
		c0.3-0.2,0.6-0.4,0.9-0.6l1.4-3.4l2.1,0.3l-0.8,4.8c-0.5,0-0.9,0.1-1.4,0.2c-0.4,0.1-0.9,0.3-1.4,0.4c-0.5,0.2-1.1,0.3-1.8,0.4
		C725.3,440.9,724.4,441,723.4,441z"/>
	<path class="st2" d="M740.2,441c-1,0-1.9-0.2-2.8-0.6c-0.8-0.4-1.5-1-2-1.8c-0.5-0.8-0.8-1.8-0.8-3c0-1.1,0.3-2.1,0.9-2.8
		c0.6-0.8,1.4-1.4,2.5-1.9c1-0.5,2.2-0.8,3.5-1.1c1.3-0.2,2.7-0.4,4.1-0.4v-1.2c0-1-0.1-1.8-0.3-2.4s-0.6-1-1.1-1.2
		c-0.5-0.2-1.3-0.4-2.3-0.4c-1.3,0-2.4,0.2-3.4,0.6c-1,0.4-1.7,0.8-2.2,1l-0.8-1.7c0.2-0.2,0.7-0.5,1.4-0.9c0.7-0.4,1.6-0.8,2.7-1.1
		c1-0.3,2.1-0.5,3.3-0.5c1.6,0,2.8,0.2,3.7,0.7c0.9,0.4,1.6,1.2,2,2.1c0.4,1,0.6,2.2,0.6,3.7v10.6h2v1.5c-0.2,0.1-0.6,0.1-1,0.2
		c-0.4,0.1-0.8,0.1-1.3,0.2c-0.4,0.1-0.9,0.1-1.2,0.1c-0.6,0-1-0.1-1.2-0.3c-0.2-0.2-0.4-0.6-0.4-1.2v-1.1c-0.3,0.3-0.7,0.6-1.2,1
		c-0.5,0.4-1.2,0.8-2,1.1C741.9,440.8,741.1,441,740.2,441z M741.6,438.7c0.6,0,1.3-0.2,2-0.5c0.8-0.3,1.4-0.8,2-1.3v-5.7
		c-1.7,0-3,0.2-4.1,0.5c-1.1,0.4-1.9,0.8-2.4,1.4c-0.5,0.6-0.8,1.3-0.8,2.1c0,0.8,0.1,1.5,0.4,2c0.3,0.5,0.7,0.9,1.2,1.1
		C740.5,438.6,741,438.7,741.6,438.7z"/>
	<path class="st2" d="M753.8,440.6V439l2.5-0.2v-14l-2.4-0.6v-1.8l4.6-0.6h0.1l0.7,0.6v0.6l-0.1,2.9h0.1c0.1-0.2,0.3-0.5,0.6-0.9
		c0.3-0.4,0.7-0.9,1.3-1.4c0.5-0.5,1.2-0.9,1.9-1.2c0.7-0.3,1.6-0.5,2.5-0.5c0.3,0,0.6,0,0.8,0.1c0.2,0,0.3,0.1,0.5,0.1v3.6
		c-0.1-0.1-0.4-0.2-0.7-0.3c-0.3-0.1-0.8-0.1-1.3-0.1c-0.9,0-1.7,0.1-2.3,0.3c-0.6,0.2-1.2,0.5-1.6,0.8c-0.4,0.3-0.8,0.6-1.1,0.8
		v11.6l4.2,0.3v1.6H753.8z"/>
	<path class="st2" d="M776.7,441c-1.9,0-3.4-0.4-4.6-1.2c-1.2-0.8-2.1-2-2.7-3.4c-0.6-1.4-0.9-3.1-0.9-5c0-1.5,0.2-2.8,0.6-4
		c0.4-1.2,1-2.2,1.8-3c0.8-0.8,1.7-1.5,2.7-2c1.1-0.5,2.2-0.7,3.5-0.7c2.1,0,3.7,0.6,4.8,1.7c1.1,1.1,1.7,2.8,1.8,4.9
		c0,0.7,0,1.2,0,1.7c0,0.5-0.1,0.9-0.2,1.3H772c0,1.1,0.2,2,0.4,2.9c0.2,0.9,0.6,1.7,1.1,2.3c0.5,0.7,1.1,1.2,1.8,1.5
		c0.7,0.4,1.5,0.5,2.4,0.5c0.9,0,1.9-0.2,2.8-0.5c1-0.3,1.7-0.7,2.2-1.1l0.6,1.5c-0.4,0.4-0.9,0.8-1.6,1.2c-0.7,0.4-1.5,0.7-2.4,0.9
		C778.5,440.8,777.6,441,776.7,441z M772.1,429.6h8c0-0.2,0-0.4,0.1-0.7c0-0.3,0-0.5,0-0.7c0-1.4-0.3-2.5-0.8-3.3
		c-0.6-0.9-1.5-1.3-2.8-1.3c-0.6,0-1.1,0.1-1.6,0.3c-0.5,0.2-1,0.5-1.4,1c-0.4,0.5-0.7,1.1-0.9,1.9
		C772.3,427.5,772.1,428.4,772.1,429.6z"/>
	<path class="st2" d="M789,440.9c-0.6,0-1.1-0.2-1.5-0.6c-0.4-0.4-0.6-0.9-0.6-1.5c0-0.7,0.2-1.3,0.7-1.7c0.5-0.5,1.1-0.7,1.7-0.7
		c0.7,0,1.2,0.2,1.6,0.6s0.5,0.9,0.5,1.5c0,0.7-0.2,1.3-0.7,1.8C790.3,440.7,789.7,440.9,789,440.9z"/>
</g>
</svg>
